<svg xmlns="http://www.w3.org/2000/svg" viewBox="0 0 1200 800">
  <rect width="1200" height="800" fill="#f8f9fa" />
  <text x="600" y="40" font-family="Arial, sans-serif" font-size="28" font-weight="bold" text-anchor="middle" fill="#333">
    Network Infrastructure Architecture Diagram
  </text>
  <rect x="50" y="80" width="280" height="100" fill="#FF6B6B" stroke="#333" stroke-width="2" rx="5"/>
  <text x="190" y="110" font-family="Arial, sans-serif" font-size="16" font-weight="bold" text-anchor="middle" fill="white">
    MikroTik RouterOS
  </text>
  <text x="190" y="135" font-family="Arial, sans-serif" font-size="14" text-anchor="middle" fill="white">
    v7.21.3 (VM on Proxmox)
  </text>
  <text x="190" y="160" font-family="Arial, sans-serif" font-size="12" text-anchor="middle" fill="white">
    Router | Firewall | NAT
  </text>
  <rect x="420" y="80" width="280" height="100" fill="#4ECDC4" stroke="#333" stroke-width="2" rx="5"/>
  <text x="560" y="110" font-family="Arial, sans-serif" font-size="16" font-weight="bold" text-anchor="middle" fill="white">
    OPNsense Firewall
  </text>
  <text x="560" y="135" font-family="Arial, sans-serif" font-size="14" text-anchor="middle" fill="white">
    v26.1.5 (VM on Proxmox)
  </text>
  <text x="560" y="160" font-family="Arial, sans-serif" font-size="12" text-anchor="middle" fill="white">
    Security | VPN | Filtering
  </text>
  <line x1="330" y1="130" x2="420" y2="130" stroke="#333" stroke-width="2" marker-end="url(#arrowhead)"/>
  <text x="375" y="70" font-family="Arial, sans-serif" font-size="12" text-anchor="middle" fill="#666">
    Connected via Ceph Storage
  </text>
  <text x="600" y="240" font-family="Arial, sans-serif" font-size="18" font-weight="bold" text-anchor="middle" fill="#333">
    Proxmox Virtual Environment 9.1.6 Cluster
  </text>
  <rect x="50" y="270" width="320" height="180" fill="#E8F4F8" stroke="#0066cc" stroke-width="2" rx="5"/>
  <text x="210" y="295" font-family="Arial, sans-serif" font-size="14" font-weight="bold" fill="#0066cc">
    Node-1 (Primary)
  </text>
  <rect x="70" y="310" width="280" height="130" fill="white" stroke="#999" stroke-width="1" rx="3"/>
  <text x="210" y="330" font-family="Arial, sans-serif" font-size="12" font-weight="bold" fill="#333">
    Dell PowerEdge R630 (10-bay Chassis)
  </text>
  <g>
    <rect x="80" y="345" width="16" height="16" fill="#FFA500" stroke="#333" stroke-width="1"/>
    <rect x="100" y="345" width="16" height="16" fill="#FFA500" stroke="#333" stroke-width="1"/>
    <rect x="120" y="345" width="16" height="16" fill="#4169E1" stroke="#333" stroke-width="1"/>
    <rect x="140" y="345" width="16" height="16" fill="#4169E1" stroke="#333" stroke-width="1"/>
    <rect x="160" y="345" width="16" height="16" fill="#FFA500" stroke="#333" stroke-width="1"/>
    <rect x="180" y="345" width="16" height="16" fill="#FFA500" stroke="#333" stroke-width="1"/>
    <rect x="200" y="345" width="16" height="16" fill="#4169E1" stroke="#333" stroke-width="1"/>
    <rect x="220" y="345" width="16" height="16" fill="#4169E1" stroke="#333" stroke-width="1"/>
    <rect x="240" y="345" width="16" height="16" fill="#FFA500" stroke="#333" stroke-width="1"/>
    <rect x="260" y="345" width="16" height="16" fill="#FFA500" stroke="#333" stroke-width="1"/>
  </g>
  <text x="210" y="375" font-family="Arial, sans-serif" font-size="10" text-anchor="middle" fill="#333">
    4x HDD (2TB) | 4x SSD (500GB) | 2x HDD (2TB)
  </text>
  <text x="210" y="395" font-family="Arial, sans-serif" font-size="11" font-weight="bold" fill="#333">
    Ceph Node | Storage Tier 1
  </text>
  <rect x="440" y="270" width="320" height="180" fill="#E8F4F8" stroke="#0066cc" stroke-width="2" rx="5"/>
  <text x="600" y="295" font-family="Arial, sans-serif" font-size="14" font-weight="bold" fill="#0066cc">
    Node-2
  </text>
  <rect x="460" y="310" width="280" height="130" fill="white" stroke="#999" stroke-width="1" rx="3"/>
  <text x="600" y="330" font-family="Arial, sans-serif" font-size="12" font-weight="bold" fill="#333">
    Dell PowerEdge R630 (10-bay Chassis)
  </text>
  <g>
    <rect x="470" y="345" width="16" height="16" fill="#FFA500" stroke="#333" stroke-width="1"/>
    <rect x="490" y="345" width="16" height="16" fill="#FFA500" stroke="#333" stroke-width="1"/>
    <rect x="510" y="345" width="16" height="16" fill="#4169E1" stroke="#333" stroke-width="1"/>
    <rect x="530" y="345" width="16" height="16" fill="#4169E1" stroke="#333" stroke-width="1"/>
    <rect x="550" y="345" width="16" height="16" fill="#FFA500" stroke="#333" stroke-width="1"/>
    <rect x="570" y="345" width="16" height="16" fill="#FFA500" stroke="#333" stroke-width="1"/>
    <rect x="590" y="345" width="16" height="16" fill="#4169E1" stroke="#333" stroke-width="1"/>
    <rect x="610" y="345" width="16" height="16" fill="#4169E1" stroke="#333" stroke-width="1"/>
    <rect x="630" y="345" width="16" height="16" fill="#FFA500" stroke="#333" stroke-width="1"/>
    <rect x="650" y="345" width="16" height="16" fill="#FFA500" stroke="#333" stroke-width="1"/>
  </g>
  <text x="600" y="375" font-family="Arial, sans-serif" font-size="10" text-anchor="middle" fill="#333">
    4x HDD (2TB) | 4x SSD (500GB) | 2x HDD (2TB)
  </text>
  <text x="600" y="395" font-family="Arial, sans-serif" font-size="11" font-weight="bold" fill="#333">
    Ceph Node | Storage Tier 2
  </text>
  <rect x="830" y="270" width="320" height="180" fill="#E8F4F8" stroke="#0066cc" stroke-width="2" rx="5"/>
  <text x="990" y="295" font-family="Arial, sans-serif" font-size="14" font-weight="bold" fill="#0066cc">
    Node-3
  </text>
  <rect x="850" y="310" width="280" height="130" fill="white" stroke="#999" stroke-width="1" rx="3"/>
  <text x="990" y="330" font-family="Arial, sans-serif" font-size="12" font-weight="bold" fill="#333">
    Dell PowerEdge R630 (10-bay Chassis)
  </text>
  <g>
    <rect x="860" y="345" width="16" height="16" fill="#FFA500" stroke="#333" stroke-width="1"/>
    <rect x="880" y="345" width="16" height="16" fill="#FFA500" stroke="#333" stroke-width="1"/>
    <rect x="900" y="345" width="16" height="16" fill="#4169E1" stroke="#333" stroke-width="1"/>
    <rect x="920" y="345" width="16" height="16" fill="#4169E1" stroke="#333" stroke-width="1"/>
    <rect x="940" y="345" width="16" height="16" fill="#FFA500" stroke="#333" stroke-width="1"/>
    <rect x="960" y="345" width="16" height="16" fill="#FFA500" stroke="#333" stroke-width="1"/>
    <rect x="980" y="345" width="16" height="16" fill="#4169E1" stroke="#333" stroke-width="1"/>
    <rect x="1000" y="345" width="16" height="16" fill="#4169E1" stroke="#333" stroke-width="1"/>
    <rect x="1020" y="345" width="16" height="16" fill="#FFA500" stroke="#333" stroke-width="1"/>
    <rect x="1040" y="345" width="16" height="16" fill="#FFA500" stroke="#333" stroke-width="1"/>
  </g>
  <text x="990" y="375" font-family="Arial, sans-serif" font-size="10" text-anchor="middle" fill="#333">
    4x HDD (2TB) | 4x SSD (500GB) | 2x HDD (2TB)
  </text>
  <text x="990" y="395" font-family="Arial, sans-serif" font-size="11" font-weight="bold" fill="#333">
    Ceph Node | Storage Tier 3
  </text>
  <line x1="190" y1="180" x2="210" y2="270" stroke="#999" stroke-width="1" stroke-dasharray="5,5"/>
  <line x1="560" y1="180" x2="600" y2="270" stroke="#999" stroke-width="1" stroke-dasharray="5,5"/>
  <rect x="200" y="520" width="800" height="120" fill="#9B59B6" stroke="#333" stroke-width="2" rx="5"/>
  <text x="600" y="550" font-family="Arial, sans-serif" font-size="16" font-weight="bold" text-anchor="middle" fill="white">
    Cisco Catalyst 2960-S Switch
  </text>
  <g>
    <circle cx="280" cy="590" r="8" fill="#FFD700" stroke="#333" stroke-width="1"/>
    <circle cx="320" cy="590" r="8" fill="#FFD700" stroke="#333" stroke-width="1"/>
    <circle cx="360" cy="590" r="8" fill="#FFD700" stroke="#333" stroke-width="1"/>
    <circle cx="400" cy="590" r="8" fill="#FFD700" stroke="#333" stroke-width="1"/>
    <circle cx="800" cy="590" r="8" fill="#FFD700" stroke="#333" stroke-width="1"/>
    <circle cx="840" cy="590" r="8" fill="#FFD700" stroke="#333" stroke-width="1"/>
    <circle cx="880" cy="590" r="8" fill="#FFD700" stroke="#333" stroke-width="1"/>
    <circle cx="920" cy="590" r="8" fill="#FFD700" stroke="#333" stroke-width="1"/>
  </g>
  <text x="600" y="620" font-family="Arial, sans-serif" font-size="12" text-anchor="middle" fill="white" font-weight="bold">
    VLAN Configuration
  </text>
  <text x="600" y="635" font-family="Arial, sans-serif" font-size="11" text-anchor="middle" fill="white">
    System (10) | DEV (20) | NOC (30)
  </text>
  <line x1="210" y1="450" x2="280" y2="520" stroke="#333" stroke-width="2"/>
  <line x1="600" y1="450" x2="600" y2="520" stroke="#333" stroke-width="2"/>
  <line x1="990" y1="450" x2="920" y2="520" stroke="#333" stroke-width="2"/>
  <rect x="200" y="680" width="800" height="80" fill="#34495E" stroke="#333" stroke-width="2" rx="5"/>
  <text x="600" y="705" font-family="Arial, sans-serif" font-size="16" font-weight="bold" text-anchor="middle" fill="white">
    Ceph Distributed Storage Cluster
  </text>
  <text x="600" y="730" font-family="Arial, sans-serif" font-size="12" text-anchor="middle" fill="white">
    Distributed across all 3 Proxmox nodes | Replication Factor: 3 | Total Capacity: 36TB
  </text>
  <line x1="210" y1="450" x2="210" y2="680" stroke="#34495E" stroke-width="2" stroke-dasharray="5,5"/>
  <line x1="600" y1="450" x2="600" y2="680" stroke="#34495E" stroke-width="2" stroke-dasharray="5,5"/>
  <line x1="990" y1="450" x2="990" y2="680" stroke="#34495E" stroke-width="2" stroke-dasharray="5,5"/>
  <text x="50" y="760" font-family="Arial, sans-serif" font-size="10" fill="#666">
    Legend: <tspan fill="#FFA500">■ HDD</tspan> | <tspan fill="#4169E1">■ SSD</tspan>
  </text>
  <defs>
    <marker id="arrowhead" markerWidth="10" markerHeight="10" refX="9" refY="3" orient="auto">
      <polygon points="0 0, 10 3, 0 6" fill="#333"/>
    </marker>
  </defs>
</svg>